<svg width="20px" height="20px" xmlns="http://www.w3.org/2000/svg" shape-rendering="geometricPrecision" text-rendering="geometricPrecision" image-rendering="optimizeQuality" fill-rule="evenodd" clip-rule="evenodd" viewBox="0 0 512 456.081"><path fill="#F44336" d="M253.648 83.482c130.392-219.055 509.908 65.493-.513 372.599-514.788-328.941-101.874-598.696.513-372.599z"/><path fill="#C62828" d="M344.488 10.579c146.331-39.079 316.84 185.128-65.02 429.134 282.18-224.165 190.925-403.563 65.02-429.134zM121.413.646c48.667-4.845 100.025 17.921 129.336 76.929 1.259 3.71 2.44 7.571 3.537 11.586 10.541 34.29.094 49.643-12.872 50.552-18.136 1.271-20.215-14.85-24.966-27.643C192.689 48.096 158.774 12.621 116.43 1.863c1.653-.435 3.314-.841 4.983-1.217z"/><path fill="#FF847A" d="M130.558 35.502C87.9 31.255 42.906 59.4 31.385 101.568c-7.868 25.593-.07 37.052 9.607 37.731 13.537.949 15.088-11.084 18.634-20.632 17.733-47.749 43.046-74.227 74.651-82.257a104.925 104.925 0 00-3.719-.908z"/></svg>